<svg id="Capa_1" enable-background="new 0 0 512.211 512.211" height="512" viewBox="0 0 512.211 512.211" width="512" xmlns="http://www.w3.org/2000/svg" fill="#1a1a1a"><path d="m412.453 64.761c-41.762-41.762-97.287-64.761-156.347-64.761s-114.586 22.999-156.348 64.761-64.761 97.287-64.761 156.347 23 114.585 64.761 156.347c38.207 38.206 87.935 60.709 141.348 64.264v70.491l23.683-16.813c4.172-2.962 102.725-73.087 150.869-121.231 19.558-19.558 34.854-42.797 45.465-69.073 10.677-26.44 16.091-54.697 16.091-83.985 0-59.06-22.999-114.585-64.761-156.347zm-156.347 298.239c-78.239 0-141.892-63.652-141.892-141.891s63.652-141.892 141.892-141.892c78.239 0 141.891 63.652 141.891 141.892 0 78.239-63.652 141.891-141.891 141.891z"/><path d="m256.106 109.217c-61.697 0-111.892 50.194-111.892 111.892 0 61.697 50.194 111.891 111.892 111.891 61.697 0 111.891-50.194 111.891-111.891 0-61.698-50.194-111.892-111.891-111.892zm15.113 175.845h-30.227v-86.226h30.227zm-15.113-95.771c-11.136 0-18.455-7-18.455-16.068s7.318-16.068 18.455-16.068c11.136 0 18.454 6.523 18.454 15.591 0 9.545-7.318 16.545-18.454 16.545z"/></svg>